<svg xmlns="http://www.w3.org/2000/svg" width="155" height="39" viewBox="0 0 155 39">
    <g fill="#673AB7" fill-rule="evenodd">
        <path d="M108.573 26.996c-3.059 0-5.54-2.669-5.54-5.961 0-3.29 2.481-5.959 5.54-5.959 3.061 0 5.54 2.669 5.54 5.959 0 3.292-2.479 5.96-5.54 5.96zm5.553-14.267l-.013-.013c-1.733-1.594-3.969-2.553-6.41-2.553-5.496 0-9.953 4.868-9.953 10.872 0 6.006 4.457 10.872 9.953 10.872 2.441 0 4.677-.96 6.41-2.553l.034-.032L115 32h4V10h-4l-.874 2.729zM78.495 26.996c-3.061 0-5.54-2.669-5.54-5.961 0-3.29 2.479-5.959 5.54-5.959 3.058 0 5.539 2.669 5.539 5.959 0 3.292-2.48 5.96-5.54 5.96zm-5.54-14.28l.045.013L72 10h-4v28h5v-8.646c1.733 1.594 3.924 2.553 6.365 2.553 5.496 0 9.953-4.866 9.953-10.872 0-6.004-4.457-10.872-9.953-10.872-2.441 0-4.677.96-6.41 2.553zM55.573 26.996c-3.059 0-5.54-2.669-5.54-5.961 0-3.29 2.481-5.959 5.54-5.959 3.061 0 5.54 2.669 5.54 5.959 0 3.292-2.479 5.96-5.54 5.96zm5.553-14.267l-.013-.013c-1.733-1.594-3.969-2.553-6.41-2.553-5.496 0-9.953 4.868-9.953 10.872 0 6.006 4.457 10.872 9.953 10.872 2.441 0 4.677-.96 6.41-2.553l.034-.032L62 32h4V10h-4l-.874 2.729zM91 32h5V3h-5zM137 21.036c-.003 3.292-2.116 5.96-5.177 5.96-3.05 0-5.808-2.653-5.823-5.933V10h-5v11.036c0 6.006 4.457 10.87 9.953 10.87 2.441 0 4.314-.959 6.047-2.553v-.032L138 32h4V10h-5v11.036zM154 10h-5V3.545h-5V32h5V15h5"/>
        <g>
            <path fill-rule="nonzero" d="M9.76 28.617a2.5 2.5 0 1 1 4.473-2.233 9.505 9.505 0 0 0 8.506 5.272 9.499 9.499 0 0 0 8.51-5.27 2.5 2.5 0 1 1 4.475 2.23 14.498 14.498 0 0 1-12.985 8.04 14.504 14.504 0 0 1-12.98-8.039z"/>
            <path d="M19.496 0a2.5 2.5 0 0 1 2.5 2.5v17.85a2.5 2.5 0 1 1-5 0V2.5a2.5 2.5 0 0 1 2.5-2.5zm7 3a2.5 2.5 0 0 1 2.5 2.5v15.3a2.5 2.5 0 1 1-5 0V5.5a2.5 2.5 0 0 1 2.5-2.5zM12.458 23H3.577C2.154 23 1 21.88 1 20.5S2.154 18 3.577 18h6.419V6.5a2.5 2.5 0 0 1 5 0v14a2.5 2.5 0 0 1-2.538 2.5zM33.496 8.8a2.5 2.5 0 0 1 2.5 2.5v9.6a2.5 2.5 0 1 1-5 0v-9.6a2.5 2.5 0 0 1 2.5-2.5z"/>
        </g>
    </g>
</svg>
